<svg xmlns="http://www.w3.org/2000/svg" viewBox="0 0 400 400" width="100%" height="100%">
  <defs>
    <linearGradient id="devBg2" x1="0%" y1="0%" x2="100%" y2="100%">
      <stop offset="0%" stop-color="#1A102A" />
      <stop offset="100%" stop-color="#090514" />
    </linearGradient>
    <linearGradient id="uiGrad" x1="0%" y1="0%" x2="100%" y2="100%">
      <stop offset="0%" stop-color="#F43F5E" />
      <stop offset="100%" stop-color="#8B5CF6" />
    </linearGradient>
  </defs>

  <rect width="400" height="400" rx="16" fill="url(#devBg2)" stroke="#382559" stroke-width="2"/>
  
  <!-- UI/UX Wireframe & Store Dashboard Mockup -->
  <rect x="30" y="40" width="340" height="230" rx="10" fill="#24183B" stroke="#483270" stroke-width="1.5"/>
  <rect x="30" y="40" width="340" height="30" rx="10" fill="#150C24"/>
  <circle cx="50" cy="55" r="4.5" fill="#EF4444"/>
  <circle cx="65" cy="55" r="4.5" fill="#F59E0B"/>
  <circle cx="80" cy="55" r="4.5" fill="#10B981"/>
  <text x="100" y="59" fill="#D8B4FE" font-family="sans-serif" font-size="11">Storefront UI &amp; Checkout Funnel</text>

  <!-- Store Wireframe Blocks -->
  <rect x="48" y="85" width="140" height="85" rx="8" fill="#322252" stroke="#583C8A" stroke-width="1"/>
  <circle cx="80" cy="115" r="16" fill="url(#uiGrad)"/>
  <text x="105" y="112" fill="#FFFFFF" font-family="sans-serif" font-size="12" font-weight="bold">Checkout</text>
  <text x="105" y="128" fill="#A78BFA" font-family="sans-serif" font-size="10">1-Click Pay</text>
  <rect x="58" y="145" width="120" height="14" rx="4" fill="#10B981" opacity="0.3"/>
  <text x="75" y="156" fill="#34D399" font-family="sans-serif" font-size="9" font-weight="bold">SSL Secured 256-bit</text>

  <rect x="210" y="85" width="140" height="85" rx="8" fill="#322252" stroke="#583C8A" stroke-width="1"/>
  <text x="222" y="105" fill="#FFFFFF" font-family="sans-serif" font-size="11" font-weight="bold">Inventory Automation</text>
  <rect x="222" y="118" width="115" height="12" rx="3" fill="#6366F1" opacity="0.3"/>
  <rect x="222" y="136" width="90" height="12" rx="3" fill="#EC4899" opacity="0.3"/>
  <rect x="222" y="154" width="70" height="12" rx="3" fill="#F59E0B" opacity="0.3"/>

  <!-- Analytics Line Graph -->
  <path d="M 50 240 Q 120 190 190 220 T 340 180" fill="none" stroke="#F43F5E" stroke-width="3"/>
  <circle cx="340" cy="180" r="5" fill="#F43F5E"/>

  <!-- Bottom Floating Badges -->
  <g transform="translate(30, 290)">
    <rect width="105" height="42" rx="8" fill="#24183B" stroke="#A855F7" stroke-width="1"/>
    <text x="14" y="26" fill="#C084FC" font-family="sans-serif" font-size="13" font-weight="bold">🎨 UI / UX Design</text>
  </g>

  <g transform="translate(148, 290)">
    <rect width="115" height="42" rx="8" fill="#24183B" stroke="#EC4899" stroke-width="1"/>
    <text x="14" y="26" fill="#F472B6" font-family="sans-serif" font-size="13" font-weight="bold">🛒 E-Commerce</text>
  </g>

  <g transform="translate(275, 290)">
    <rect width="95" height="42" rx="8" fill="#24183B" stroke="#3B82F6" stroke-width="1"/>
    <text x="14" y="26" fill="#60A5FA" font-family="sans-serif" font-size="13" font-weight="bold">💻 WordPress</text>
  </g>

  <text x="200" y="365" fill="#C084FC" font-family="sans-serif" font-size="12" text-anchor="middle" font-weight="500">
    Figma • Conversion Optimization • Custom Dashboards
  </text>
</svg>
